<?xml version="1.0" encoding="UTF-8"?>
<svg width="125px" height="144px" viewBox="0 0 125 144" version="1.1" xmlns="http://www.w3.org/2000/svg" xmlns:xlink="http://www.w3.org/1999/xlink">
    <!-- Generator: Sketch 39.1 (31720) - http://www.bohemiancoding.com/sketch -->
    <title>AnvilLogo</title>
    <desc>Created with Sketch.</desc>
    <defs></defs>
    <g id="Page-1" stroke="none" stroke-width="1" fill="none" fill-rule="evenodd">
        <g id="AnvilLogo">
            <g id="Layer_3" fill="#000000">
                <polygon id="Shape" points="0 36 62.2 0 124.4 36 124.4 108 62.2 144 0 108"></polygon>
            </g>
            <g id="Layer_4" transform="translate(8.000000, 6.000000)">
                <path d="M0.6,51.6 C0.6,51.6 4,57.4 10.2,62.2 C12.8,64.2 17.7,67 24.5,68.6 C33.6,70.8 45.9,72.3 45.9,72.3 L46,80 C46,80 43.2,81 38.1,84.5 C33,88 31.4,89.8 31.4,89.8 L31.4,98 L50,98 C50,98 53.6,94.1 59.4,94 C65.2,93.9 68.5,98 68.5,98 L87.2,98 L87.2,90.9 C87.2,90.9 85.4,88.1 80.1,85 C74.8,81.8 71.9,80.1 71.9,80.1 L71.9,72.3 L88.5,57.7 L105.6,57.7 L105.6,48.5 L41.3,48.5 L41.1,51.5 L0.6,51.5 L0.6,51.6 L0.6,51.6 Z" id="Shape" fill="#BD8F2D"></path>
                <circle id="Oval" stroke="#BD8F2D" stroke-width="0.8" cx="4.1" cy="70.8" r="2.2"></circle>
                <circle id="Oval" stroke="#BD8F2D" stroke-width="0.8" cx="8.6" cy="77.3" r="2.2"></circle>
                <circle id="Oval" stroke="#BD8F2D" stroke-width="0.8" cx="14.1" cy="83.4" r="2.2"></circle>
                <polyline id="Shape" stroke="#BD8F2D" stroke-width="0.8" points="14.1 85.6 14.1 97.9 68.6 129.4"></polyline>
                <polyline id="Shape" stroke="#BD8F2D" stroke-width="0.8" points="8.6 79.6 8.6 99.4 63.9 132.2"></polyline>
                <polyline id="Shape" stroke="#BD8F2D" stroke-width="0.8" points="4.1 73.1 4.1 102.9 59 135"></polyline>
                <circle id="Oval" stroke="#BD8F2D" stroke-width="0.8" cx="99.2" cy="32.6" r="2.2"></circle>
                <circle id="Oval" stroke="#BD8F2D" stroke-width="0.8" cx="87.8" cy="30" r="2.2"></circle>
                <path d="M85.9,29.1 L41,3.1" id="Shape" stroke="#BD8F2D" stroke-width="0.8"></path>
                <path d="M97.6,31.1 L45.3,0.2" id="Shape" stroke="#BD8F2D" stroke-width="0.8"></path>
                <circle id="Oval" stroke="#BD8F2D" stroke-width="0.8" cx="95.4" cy="62.2" r="2.2"></circle>
                <circle id="Oval" stroke="#BD8F2D" stroke-width="0.8" cx="85.9" cy="67.4" r="2.2"></circle>
                <circle id="Oval" stroke="#BD8F2D" stroke-width="0.8" cx="79.6" cy="75.1" r="2.2"></circle>
                <circle id="Oval" stroke="#BD8F2D" stroke-width="0.8" cx="85.9" cy="81.8" r="2.2"></circle>
                <circle id="Oval" stroke="#BD8F2D" stroke-width="0.8" cx="95.4" cy="86.8" r="2.2"></circle>
                <path d="M97.6,62.2 L116.4,62.2" id="Shape" stroke="#BD8F2D" stroke-width="0.8"></path>
                <path d="M88.2,67.4 L116.4,67.4" id="Shape" stroke="#BD8F2D" stroke-width="0.8"></path>
                <path d="M81.9,75.1 L116.4,75.1" id="Shape" stroke="#BD8F2D" stroke-width="0.8"></path>
                <path d="M88.2,81.8 L116.4,81.8" id="Shape" stroke="#BD8F2D" stroke-width="0.8"></path>
                <path d="M97.6,86.8 L116.4,86.8" id="Shape" stroke="#BD8F2D" stroke-width="0.8"></path>
                <circle id="Oval" stroke="#BD8F2D" stroke-width="0.8" cx="4.7" cy="45.7" r="2.2"></circle>
                <circle id="Oval" stroke="#BD8F2D" stroke-width="0.8" cx="13.1" cy="45.7" r="2.2"></circle>
                <circle id="Oval" stroke="#BD8F2D" stroke-width="0.8" cx="21.2" cy="45.7" r="2.2"></circle>
                <circle id="Oval" stroke="#BD8F2D" stroke-width="0.8" cx="29.6" cy="45.7" r="2.2"></circle>
                <circle id="Oval" stroke="#BD8F2D" stroke-width="0.8" cx="37.7" cy="45.7" r="2.2"></circle>
                <polyline id="Shape" stroke="#BC8F2D" points="37.7 43.5 37.7 39.4 83.1 39.4 83.1 31.7 35.8 6.4"></polyline>
                <path d="M4.7,43.5 L4.7,24" id="Shape" stroke="#BC8F2D"></path>
                <polyline id="Shape" stroke="#BC8F2D" points="29.6 43.5 29.6 34.8 76.7 34.8 76.7 33.1 31 9"></polyline>
                <polyline id="Shape" stroke="#BC8F2D" points="21.2 43.5 21.2 30 62.6 30.3 24.3 12.2"></polyline>
                <polyline id="Shape" stroke="#BC8F2D" points="13.1 43.5 13.1 25.9 37.7 25.9 18.1 16.4"></polyline>
                <circle id="Oval" stroke="#BD8F2D" stroke-width="0.8" cx="41.3" cy="106.7" r="2.2"></circle>
                <circle id="Oval" stroke="#BD8F2D" stroke-width="0.8" cx="49.8" cy="105.9" r="2.2"></circle>
                <path d="M43.1,107.9 L73,125.9" id="Shape" stroke="#BD8F2D" stroke-width="0.8"></path>
                <path d="M51.8,106.9 L78.3,122.5" id="Shape" stroke="#BD8F2D" stroke-width="0.8"></path>
                <circle id="Oval" stroke="#BD8F2D" stroke-width="0.8" cx="103.4" cy="93.6" r="2.2"></circle>
                <path d="M105.7,93.6 L116.4,93.6" id="Shape" stroke="#BD8F2D" stroke-width="0.8"></path>
                <circle id="Oval" stroke="#BD8F2D" stroke-width="0.8" cx="97.6" cy="99.5" r="2.2"></circle>
                <path d="M99.9,99.5 L116.4,99.5" id="Shape" stroke="#BD8F2D" stroke-width="0.8"></path>
                <circle id="Oval" stroke="#BD8F2D" stroke-width="0.8" cx="87.8" cy="106.9" r="2.2"></circle>
                <circle id="Oval" stroke="#BD8F2D" stroke-width="0.8" cx="60.3" cy="104" r="2.2"></circle>
                <path d="M87.8,109.2 L87.8,117.5" id="Shape" stroke="#BD8F2D" stroke-width="0.7644"></path>
                <path d="M61.9,105.4 L83.6,119.9" id="Shape" stroke="#BD8F2D" stroke-width="0.8"></path>
            </g>
            <rect id="Rectangle-path" fill="#000000" x="58" y="70" width="3.9766309" height="20.644637"></rect>
            <rect id="Rectangle-path" fill="#000000" x="65" y="70" width="3.9766309" height="20.644637"></rect>
            <rect id="Rectangle-path" fill="#000000" x="72" y="70" width="3.9766309" height="20.644637"></rect>
            <polygon id="Shape" fill="#BC8F2D" points="62.2 0 0 36 0.1 39 64.6 1.5"></polygon>
            <polygon id="Shape" fill="#BC8F2D" points="124 104.9 59.1 142.2 62.2 144 124.4 108"></polygon>
            <polygon id="Shape" fill="#BC8F2D" points="59.5 1.6 124.4 39.4 124.4 36 62.2 0"></polygon>
            <polygon id="Shape" fill="#BC8F2D" points="0 36 0 108 2.4 109.3 2.4 34.6"></polygon>
            <polygon id="Shape" fill="#BC8F2D" points="124.4 108 124.4 36 121.5 34.3 121.5 109.2"></polygon>
            <polygon id="Shape" fill="#BC8F2D" points="64.8 142.3 0.2 104.8 0 108 62.2 144"></polygon>
        </g>
    </g>
</svg>