<?xml version="1.0" encoding="UTF-8"?>
<svg width="447px" height="144px" viewBox="0 0 447 144" version="1.1" xmlns="http://www.w3.org/2000/svg" xmlns:xlink="http://www.w3.org/1999/xlink">
    <!-- Generator: Sketch 39.1 (31720) - http://www.bohemiancoding.com/sketch -->
    <title>Group</title>
    <desc>Created with Sketch.</desc>
    <defs></defs>
    <g id="Page-1" stroke="none" stroke-width="1" fill="none" fill-rule="evenodd">
        <g id="Group">
            <g id="AnvilLogo">
                <g id="Layer_3" fill="#000000">
                    <polygon id="Shape" points="0 36 62.2 0 124.4 36 124.4 108 62.2 144 0 108"></polygon>
                </g>
                <g id="Layer_4" transform="translate(8.000000, 6.000000)">
                    <path d="M0.6,51.6 C0.6,51.6 4,57.4 10.2,62.2 C12.8,64.2 17.7,67 24.5,68.6 C33.6,70.8 45.9,72.3 45.9,72.3 L46,80 C46,80 43.2,81 38.1,84.5 C33,88 31.4,89.8 31.4,89.8 L31.4,98 L50,98 C50,98 53.6,94.1 59.4,94 C65.2,93.9 68.5,98 68.5,98 L87.2,98 L87.2,90.9 C87.2,90.9 85.4,88.1 80.1,85 C74.8,81.8 71.9,80.1 71.9,80.1 L71.9,72.3 L88.5,57.7 L105.6,57.7 L105.6,48.5 L41.3,48.5 L41.1,51.5 L0.6,51.5 L0.6,51.6 L0.6,51.6 Z" id="Shape" fill="#BD8F2D"></path>
                    <circle id="Oval" stroke="#BD8F2D" stroke-width="0.8" cx="4.1" cy="70.8" r="2.2"></circle>
                    <circle id="Oval" stroke="#BD8F2D" stroke-width="0.8" cx="8.6" cy="77.3" r="2.2"></circle>
                    <circle id="Oval" stroke="#BD8F2D" stroke-width="0.8" cx="14.1" cy="83.4" r="2.2"></circle>
                    <polyline id="Shape" stroke="#BD8F2D" stroke-width="0.8" points="14.1 85.6 14.1 97.9 68.6 129.4"></polyline>
                    <polyline id="Shape" stroke="#BD8F2D" stroke-width="0.8" points="8.6 79.6 8.6 99.4 63.9 132.2"></polyline>
                    <polyline id="Shape" stroke="#BD8F2D" stroke-width="0.8" points="4.1 73.1 4.1 102.9 59 135"></polyline>
                    <circle id="Oval" stroke="#BD8F2D" stroke-width="0.8" cx="99.2" cy="32.6" r="2.2"></circle>
                    <circle id="Oval" stroke="#BD8F2D" stroke-width="0.8" cx="87.8" cy="30" r="2.2"></circle>
                    <path d="M85.9,29.1 L41,3.1" id="Shape" stroke="#BD8F2D" stroke-width="0.8"></path>
                    <path d="M97.6,31.1 L45.3,0.2" id="Shape" stroke="#BD8F2D" stroke-width="0.8"></path>
                    <circle id="Oval" stroke="#BD8F2D" stroke-width="0.8" cx="95.4" cy="62.2" r="2.2"></circle>
                    <circle id="Oval" stroke="#BD8F2D" stroke-width="0.8" cx="85.9" cy="67.4" r="2.2"></circle>
                    <circle id="Oval" stroke="#BD8F2D" stroke-width="0.8" cx="79.6" cy="75.1" r="2.2"></circle>
                    <circle id="Oval" stroke="#BD8F2D" stroke-width="0.8" cx="85.9" cy="81.8" r="2.2"></circle>
                    <circle id="Oval" stroke="#BD8F2D" stroke-width="0.8" cx="95.4" cy="86.8" r="2.2"></circle>
                    <path d="M97.6,62.2 L116.4,62.2" id="Shape" stroke="#BD8F2D" stroke-width="0.8"></path>
                    <path d="M88.2,67.4 L116.4,67.4" id="Shape" stroke="#BD8F2D" stroke-width="0.8"></path>
                    <path d="M81.9,75.1 L116.4,75.1" id="Shape" stroke="#BD8F2D" stroke-width="0.8"></path>
                    <path d="M88.2,81.8 L116.4,81.8" id="Shape" stroke="#BD8F2D" stroke-width="0.8"></path>
                    <path d="M97.6,86.8 L116.4,86.8" id="Shape" stroke="#BD8F2D" stroke-width="0.8"></path>
                    <circle id="Oval" stroke="#BD8F2D" stroke-width="0.8" cx="4.7" cy="45.7" r="2.2"></circle>
                    <circle id="Oval" stroke="#BD8F2D" stroke-width="0.8" cx="13.1" cy="45.7" r="2.2"></circle>
                    <circle id="Oval" stroke="#BD8F2D" stroke-width="0.8" cx="21.2" cy="45.7" r="2.2"></circle>
                    <circle id="Oval" stroke="#BD8F2D" stroke-width="0.8" cx="29.6" cy="45.7" r="2.2"></circle>
                    <circle id="Oval" stroke="#BD8F2D" stroke-width="0.8" cx="37.7" cy="45.7" r="2.2"></circle>
                    <polyline id="Shape" stroke="#BC8F2D" points="37.7 43.5 37.7 39.4 83.1 39.4 83.1 31.7 35.8 6.4"></polyline>
                    <path d="M4.7,43.5 L4.7,24" id="Shape" stroke="#BC8F2D"></path>
                    <polyline id="Shape" stroke="#BC8F2D" points="29.6 43.5 29.6 34.8 76.7 34.8 76.7 33.1 31 9"></polyline>
                    <polyline id="Shape" stroke="#BC8F2D" points="21.2 43.5 21.2 30 62.6 30.3 24.3 12.2"></polyline>
                    <polyline id="Shape" stroke="#BC8F2D" points="13.1 43.5 13.1 25.9 37.7 25.9 18.1 16.4"></polyline>
                    <circle id="Oval" stroke="#BD8F2D" stroke-width="0.8" cx="41.3" cy="106.7" r="2.2"></circle>
                    <circle id="Oval" stroke="#BD8F2D" stroke-width="0.8" cx="49.8" cy="105.9" r="2.2"></circle>
                    <path d="M43.1,107.9 L73,125.9" id="Shape" stroke="#BD8F2D" stroke-width="0.8"></path>
                    <path d="M51.8,106.9 L78.3,122.5" id="Shape" stroke="#BD8F2D" stroke-width="0.8"></path>
                    <circle id="Oval" stroke="#BD8F2D" stroke-width="0.8" cx="103.4" cy="93.6" r="2.2"></circle>
                    <path d="M105.7,93.6 L116.4,93.6" id="Shape" stroke="#BD8F2D" stroke-width="0.8"></path>
                    <circle id="Oval" stroke="#BD8F2D" stroke-width="0.8" cx="97.6" cy="99.5" r="2.2"></circle>
                    <path d="M99.9,99.5 L116.4,99.5" id="Shape" stroke="#BD8F2D" stroke-width="0.8"></path>
                    <circle id="Oval" stroke="#BD8F2D" stroke-width="0.8" cx="87.8" cy="106.9" r="2.2"></circle>
                    <circle id="Oval" stroke="#BD8F2D" stroke-width="0.8" cx="60.3" cy="104" r="2.2"></circle>
                    <path d="M87.8,109.2 L87.8,117.5" id="Shape" stroke="#BD8F2D" stroke-width="0.7644"></path>
                    <path d="M61.9,105.4 L83.6,119.9" id="Shape" stroke="#BD8F2D" stroke-width="0.8"></path>
                </g>
                <rect id="Rectangle-path" fill="#000000" x="58" y="70" width="3.9766309" height="20.644637"></rect>
                <rect id="Rectangle-path" fill="#000000" x="65" y="70" width="3.9766309" height="20.644637"></rect>
                <rect id="Rectangle-path" fill="#000000" x="72" y="70" width="3.9766309" height="20.644637"></rect>
                <polygon id="Shape" fill="#BC8F2D" points="62.2 0 0 36 0.1 39 64.6 1.5"></polygon>
                <polygon id="Shape" fill="#BC8F2D" points="124 104.9 59.1 142.2 62.2 144 124.4 108"></polygon>
                <polygon id="Shape" fill="#BC8F2D" points="59.5 1.6 124.4 39.4 124.4 36 62.2 0"></polygon>
                <polygon id="Shape" fill="#BC8F2D" points="0 36 0 108 2.4 109.3 2.4 34.6"></polygon>
                <polygon id="Shape" fill="#BC8F2D" points="124.4 108 124.4 36 121.5 34.3 121.5 109.2"></polygon>
                <polygon id="Shape" fill="#BC8F2D" points="64.8 142.3 0.2 104.8 0 108 62.2 144"></polygon>
            </g>
            <path d="M162.153868,65.8290341 L160.17397,59.3289914 L150.218445,59.3289914 L148.238547,65.8290341 L142,65.8290341 L151.637994,38.4093139 L158.717064,38.4093139 L168.392415,65.8290341 L162.153868,65.8290341 Z M158.791777,54.4726377 C156.961296,48.5827229 155.930888,45.2517956 155.700521,44.4797561 C155.470154,43.7077165 155.305164,43.0975653 155.205546,42.6492843 C154.794622,44.2431725 153.617902,48.1842509 151.675351,54.4726377 L158.791777,54.4726377 Z M190.943827,65.8290341 L185.24695,65.8290341 L185.24695,53.632115 C185.24695,52.1253926 184.979231,50.9953677 184.443784,50.2420065 C183.908337,49.4886453 183.055371,49.1119704 181.884859,49.1119704 C180.290971,49.1119704 179.139155,49.6442961 178.429377,50.7089636 C177.719599,51.7736311 177.364715,53.5387112 177.364715,56.004257 L177.364715,65.8290341 L171.667838,65.8290341 L171.667838,44.9467132 L176.019878,44.9467132 L176.785688,47.6177077 L177.103219,47.6177077 C177.738284,46.6090753 178.613041,45.8463864 179.727518,45.329618 C180.841994,44.8128495 182.108992,44.5544692 183.528548,44.5544692 C185.956737,44.5544692 187.799643,45.2113156 189.05732,46.5250281 C190.314998,47.8387406 190.943827,49.7345674 190.943827,52.2125654 L190.943827,65.8290341 Z M202.06413,65.8290341 L194.107181,44.9467132 L200.065553,44.9467132 L204.100063,56.8447797 C204.548344,58.3515021 204.828515,59.7772635 204.940585,61.1221066 L205.052655,61.1221066 C205.114916,59.9266905 205.395088,58.5009291 205.893178,56.8447797 L209.909009,44.9467132 L215.867381,44.9467132 L207.910432,65.8290341 L202.06413,65.8290341 Z M218.899987,39.5486892 C218.899987,37.6933038 219.933509,36.765625 222.000582,36.765625 C224.067656,36.765625 225.101177,37.6933038 225.101177,39.5486892 C225.101177,40.4327991 224.842797,41.1207756 224.326029,41.6126396 C223.80926,42.1045035 223.034119,42.3504318 222.000582,42.3504318 C219.933509,42.3504318 218.899987,41.4165269 218.899987,39.5486892 L218.899987,39.5486892 Z M224.839681,65.8290341 L219.142805,65.8290341 L219.142805,44.9467132 L224.839681,44.9467132 L224.839681,65.8290341 Z M236.800507,65.8290341 L231.103631,65.8290341 L231.103631,36.765625 L236.800507,36.765625 L236.800507,65.8290341 Z M276.113064,65.8290341 L270.341474,65.8290341 L270.341474,54.0430372 L259.526748,54.0430372 L259.526748,65.8290341 L253.73648,65.8290341 L253.73648,38.5213836 L259.526748,38.5213836 L259.526748,49.2240401 L270.341474,49.2240401 L270.341474,38.5213836 L276.113064,38.5213836 L276.113064,65.8290341 Z M296.105551,65.8290341 L295.003533,62.989935 L294.854106,62.989935 C293.895283,64.1978034 292.908457,65.0352047 291.893598,65.5021641 C290.87874,65.9691235 289.555708,66.2025997 287.924463,66.2025997 C285.919651,66.2025997 284.341352,65.6298048 283.189518,64.4841977 C282.037685,63.3385906 281.461777,61.7073701 281.461777,59.5904874 C281.461777,57.3739867 282.236918,55.7396532 283.787223,54.687438 C285.337529,53.6352228 287.675404,53.0530887 290.800919,52.9410185 L294.424506,52.8289488 L294.424506,51.9137129 C294.424506,49.7968302 293.341176,48.7384047 291.174485,48.7384047 C289.505883,48.7384047 287.544683,49.2427133 285.290825,50.2513457 L283.404319,46.4036193 C285.807603,45.1459419 288.472345,44.5171126 291.398624,44.5171126 C294.200381,44.5171126 296.348362,45.1272638 297.842632,46.3475844 C299.336902,47.567905 300.084026,49.4232626 300.084026,51.9137129 L300.084026,65.8290341 L296.105551,65.8290341 Z M294.424506,56.1536832 L292.220468,56.2283964 C290.564319,56.2782054 289.331565,56.5770549 288.522168,57.124954 C287.712772,57.672853 287.30808,58.5071414 287.30808,59.627844 C287.30808,61.2341844 288.229533,62.0373425 290.072466,62.0373425 C291.392404,62.0373425 292.447717,61.6575546 293.238435,60.8979672 C294.029153,60.1383799 294.424506,59.1297627 294.424506,57.8720853 L294.424506,56.1536832 Z M314.715846,66.2025997 C308.215771,66.2025997 304.965782,62.6350833 304.965782,55.4999433 C304.965782,51.9510517 305.849879,49.2396147 307.618098,47.3655509 C309.386318,45.4914871 311.920313,44.5544692 315.22016,44.5544692 C317.635896,44.5544692 319.802556,45.0276477 321.720202,45.9740188 L320.039157,50.3820936 C319.142595,50.0209784 318.308306,49.7252418 317.536267,49.4948752 C316.764227,49.2645085 315.992199,49.1493269 315.22016,49.1493269 C312.256524,49.1493269 310.774728,51.2537258 310.774728,55.4625868 C310.774728,59.5469252 312.256524,61.5890637 315.22016,61.5890637 C316.315958,61.5890637 317.330801,61.442752 318.26472,61.1501241 C319.198639,60.8574962 320.132543,60.3998828 321.066462,59.7772702 L321.066462,64.6523022 C320.144996,65.237558 319.214204,65.6422501 318.274059,65.8663906 C317.333914,66.0905312 316.147855,66.2025997 314.715846,66.2025997 L314.715846,66.2025997 Z M331.663773,54.4726377 L334.147985,51.2973295 L339.994288,44.9467132 L346.419617,44.9467132 L338.126459,54.0056806 L346.923931,65.8290341 L340.349175,65.8290341 L334.334768,57.3677717 L331.887913,59.3289914 L331.887913,65.8290341 L326.191036,65.8290341 L326.191036,36.765625 L331.887913,36.765625 L331.887913,49.7283537 L331.58906,54.4726377 L331.663773,54.4726377 Z M360.871379,65.8290341 L360.871379,38.5213836 L366.661647,38.5213836 L366.661647,65.8290341 L360.871379,65.8290341 Z M373.822153,65.8290341 L373.822153,38.5213836 L379.612421,38.5213836 L379.612421,65.8290341 L373.822153,65.8290341 Z M386.772928,65.8290341 L386.772928,38.5213836 L392.563196,38.5213836 L392.563196,65.8290341 L386.772928,65.8290341 Z" id="Anvil-Hack-III" fill="#FFFFFF"></path>
            <path d="M151.84375,103 L150.244141,98.9130859 L145.09375,98.9130859 L143.511719,103 L142,103 L147.080078,90.0976562 L148.336914,90.0976562 L153.390625,103 L151.84375,103 Z M149.77832,97.5683594 L148.28418,93.5869141 C148.090819,93.0830053 147.891603,92.4648474 147.686523,91.7324219 C147.557617,92.2949247 147.373048,92.9130826 147.132812,93.5869141 L145.621094,97.5683594 L149.77832,97.5683594 Z M163.732891,103.175781 C162.338352,103.175781 161.258773,102.746586 160.494121,101.888184 C159.729469,101.029781 159.347148,99.8154375 159.347148,98.2451172 C159.347148,96.633781 159.735328,95.3886763 160.511699,94.5097656 C161.28807,93.630855 162.394016,93.1914062 163.82957,93.1914062 C164.292463,93.1914062 164.755349,93.2412104 165.218242,93.3408203 C165.681135,93.4404302 166.044413,93.5576165 166.308086,93.6923828 L165.859844,94.9316406 C165.537577,94.8027337 165.186018,94.6958012 164.805156,94.6108398 C164.424295,94.5258785 164.087384,94.4833984 163.794414,94.4833984 C161.837373,94.4833984 160.858867,95.7314328 160.858867,98.2275391 C160.858867,99.4111387 161.097634,100.319333 161.575176,100.952148 C162.052717,101.584964 162.76023,101.901367 163.697734,101.901367 C164.500473,101.901367 165.323707,101.728517 166.167461,101.382812 L166.167461,102.674805 C165.522926,103.008791 164.711411,103.175781 163.732891,103.175781 L163.732891,103.175781 Z M172.982148,93.1914062 C173.409885,93.1914062 173.79367,93.2265621 174.133516,93.296875 L173.931367,94.6503906 C173.532928,94.5624996 173.181369,94.5185547 172.87668,94.5185547 C172.097379,94.5185547 171.430882,94.8349578 170.877168,95.4677734 C170.323454,96.1005891 170.046602,96.8886672 170.046602,97.8320312 L170.046602,103 L168.587617,103 L168.587617,93.3671875 L169.791719,93.3671875 L169.958711,95.1513672 L170.029023,95.1513672 C170.386447,94.5244109 170.817107,94.0410173 171.321016,93.7011719 C171.824924,93.3613264 172.37863,93.1914062 172.982148,93.1914062 L172.982148,93.1914062 Z M179.779258,103.175781 C178.355423,103.175781 177.231899,102.742192 176.408652,101.875 C175.585406,101.007808 175.173789,99.8037186 175.173789,98.2626953 C175.173789,96.7099532 175.556109,95.4765671 176.320762,94.5625 C177.085414,93.6484329 178.112259,93.1914062 179.401328,93.1914062 C180.608365,93.1914062 181.563434,93.5883749 182.266563,94.3823242 C182.969691,95.1762735 183.32125,96.2236263 183.32125,97.5244141 L183.32125,98.4472656 L176.685508,98.4472656 C176.714805,99.5781307 177.000447,100.436521 177.542441,101.022461 C178.084436,101.608401 178.847612,101.901367 179.831992,101.901367 C180.869107,101.901367 181.894487,101.684572 182.908164,101.250977 L182.908164,102.551758 C182.392537,102.774415 181.904748,102.934082 181.444785,103.030762 C180.984822,103.127442 180.429652,103.175781 179.779258,103.175781 L179.779258,103.175781 Z M179.38375,94.4130859 C178.610309,94.4130859 177.993616,94.6650365 177.533652,95.1689453 C177.073689,95.6728541 176.802696,96.3701127 176.720664,97.2607422 L181.756797,97.2607422 C181.756797,96.3408157 181.551721,95.6362329 181.141563,95.1469727 C180.731404,94.6577124 180.145473,94.4130859 179.38375,94.4130859 L179.38375,94.4130859 Z M191.867383,103 L191.577344,101.628906 L191.507031,101.628906 C191.02656,102.232425 190.547561,102.641112 190.07002,102.85498 C189.592478,103.068849 188.996293,103.175781 188.281445,103.175781 C187.326362,103.175781 186.577835,102.92969 186.03584,102.4375 C185.493845,101.94531 185.222852,101.245122 185.222852,100.336914 C185.222852,98.3915918 186.7785,97.3720708 189.889844,97.2783203 L191.524609,97.2255859 L191.524609,96.6279297 C191.524609,95.8720665 191.362013,95.3139666 191.036816,94.9536133 C190.711619,94.5932599 190.191605,94.4130859 189.476758,94.4130859 C188.674019,94.4130859 187.765825,94.6591772 186.752148,95.1513672 L186.303906,94.0351562 C186.778518,93.7773425 187.298532,93.575196 187.863965,93.4287109 C188.429397,93.2822258 188.996286,93.2089844 189.564648,93.2089844 C190.713092,93.2089844 191.564157,93.4638646 192.117871,93.9736328 C192.671585,94.483401 192.948438,95.3007756 192.948438,96.4257812 L192.948438,103 L191.867383,103 Z M188.571484,101.97168 C189.479692,101.97168 190.193064,101.722659 190.711621,101.224609 C191.230178,100.72656 191.489453,100.029301 191.489453,99.1328125 L191.489453,98.2626953 L190.030469,98.3242188 C188.870307,98.3652346 188.033889,98.5454086 187.521191,98.8647461 C187.008494,99.1840836 186.752148,99.6806607 186.752148,100.354492 C186.752148,100.881839 186.911815,101.283202 187.231152,101.558594 C187.55049,101.833986 187.997263,101.97168 188.571484,101.97168 L188.571484,101.97168 Z M199.200625,101.97168 C199.458439,101.97168 199.70746,101.952637 199.947695,101.914551 C200.187931,101.876465 200.378359,101.836914 200.518984,101.795898 L200.518984,102.912109 C200.36078,102.988282 200.127873,103.051269 199.820254,103.101074 C199.512635,103.150879 199.235783,103.175781 198.989688,103.175781 C197.126397,103.175781 196.194766,102.194346 196.194766,100.231445 L196.194766,94.5009766 L194.814883,94.5009766 L194.814883,93.7978516 L196.194766,93.1914062 L196.81,91.1347656 L197.65375,91.1347656 L197.65375,93.3671875 L200.448672,93.3671875 L200.448672,94.5009766 L197.65375,94.5009766 L197.65375,100.169922 C197.65375,100.750003 197.791444,101.195311 198.066836,101.505859 C198.342228,101.816408 198.720154,101.97168 199.200625,101.97168 L199.200625,101.97168 Z M204.037773,103 L202.578789,103 L202.578789,93.3671875 L204.037773,93.3671875 L204.037773,103 Z M202.455742,90.7568359 C202.455742,90.4228499 202.537773,90.1782234 202.701836,90.0229492 C202.865899,89.867675 203.070975,89.7900391 203.31707,89.7900391 C203.551447,89.7900391 203.753593,89.8691398 203.923516,90.0273438 C204.093438,90.1855477 204.178398,90.4287093 204.178398,90.7568359 C204.178398,91.0849626 204.093438,91.329589 203.923516,91.4907227 C203.753593,91.6518563 203.551447,91.7324219 203.31707,91.7324219 C203.070975,91.7324219 202.865899,91.6518563 202.701836,91.4907227 C202.537773,91.329589 202.455742,91.0849626 202.455742,90.7568359 L202.455742,90.7568359 Z M209.375898,103 L205.719648,93.3671875 L207.284102,93.3671875 L209.35832,99.0800781 C209.827073,100.416022 210.102461,101.283201 210.184492,101.681641 L210.254805,101.681641 C210.319258,101.371092 210.522869,100.728032 210.865645,99.7524414 C211.20842,98.7768506 211.977455,96.6484539 213.172773,93.3671875 L214.737227,93.3671875 L211.080977,103 L209.375898,103 Z M220.488438,103.175781 C219.064602,103.175781 217.941078,102.742192 217.117832,101.875 C216.294586,101.007808 215.882969,99.8037186 215.882969,98.2626953 C215.882969,96.7099532 216.265289,95.4765671 217.029941,94.5625 C217.794594,93.6484329 218.821439,93.1914062 220.110508,93.1914062 C221.317545,93.1914062 222.272614,93.5883749 222.975742,94.3823242 C223.678871,95.1762735 224.03043,96.2236263 224.03043,97.5244141 L224.03043,98.4472656 L217.394688,98.4472656 C217.423985,99.5781307 217.709626,100.436521 218.251621,101.022461 C218.793616,101.608401 219.556792,101.901367 220.541172,101.901367 C221.578286,101.901367 222.603667,101.684572 223.617344,101.250977 L223.617344,102.551758 C223.101716,102.774415 222.613928,102.934082 222.153965,103.030762 C221.694002,103.127442 221.138831,103.175781 220.488438,103.175781 L220.488438,103.175781 Z M220.09293,94.4130859 C219.319488,94.4130859 218.702795,94.6650365 218.242832,95.1689453 C217.782869,95.6728541 217.511875,96.3701127 217.429844,97.2607422 L222.465977,97.2607422 C222.465977,96.3408157 222.260901,95.6362329 221.850742,95.1469727 C221.440584,94.6577124 220.854652,94.4130859 220.09293,94.4130859 L220.09293,94.4130859 Z M238.055313,103 L238.055313,96.7685547 C238.055313,95.9833945 237.876603,95.3974629 237.51918,95.0107422 C237.161756,94.6240215 236.602191,94.4306641 235.840469,94.4306641 C234.826792,94.4306641 234.087053,94.7060519 233.621231,95.2568359 C233.155408,95.8076199 232.9225,96.7099547 232.9225,97.9638672 L232.9225,103 L231.463516,103 L231.463516,89.3242188 L232.9225,89.3242188 L232.9225,93.4638672 C232.9225,93.9619166 232.899063,94.3749984 232.852188,94.703125 L232.940078,94.703125 C233.227189,94.2402321 233.635876,93.8754896 234.166152,93.6088867 C234.696428,93.3422838 235.301403,93.2089844 235.981094,93.2089844 C237.158834,93.2089844 238.042126,93.4887667 238.630996,94.0483398 C239.219866,94.607913 239.514297,95.4970642 239.514297,96.7158203 L239.514297,103 L238.055313,103 Z M248.570195,103 L248.280156,101.628906 L248.209844,101.628906 C247.729373,102.232425 247.250374,102.641112 246.772832,102.85498 C246.295291,103.068849 245.699105,103.175781 244.984258,103.175781 C244.029175,103.175781 243.280647,102.92969 242.738652,102.4375 C242.196658,101.94531 241.925664,101.245122 241.925664,100.336914 C241.925664,98.3915918 243.481313,97.3720708 246.592656,97.2783203 L248.227422,97.2255859 L248.227422,96.6279297 C248.227422,95.8720665 248.064826,95.3139666 247.739629,94.9536133 C247.414432,94.5932599 246.894418,94.4130859 246.17957,94.4130859 C245.376832,94.4130859 244.468638,94.6591772 243.454961,95.1513672 L243.006719,94.0351562 C243.481331,93.7773425 244.001345,93.575196 244.566777,93.4287109 C245.13221,93.2822258 245.699099,93.2089844 246.267461,93.2089844 C247.415904,93.2089844 248.26697,93.4638646 248.820684,93.9736328 C249.374397,94.483401 249.65125,95.3007756 249.65125,96.4257812 L249.65125,103 L248.570195,103 Z M245.274297,101.97168 C246.182505,101.97168 246.895876,101.722659 247.414434,101.224609 C247.932991,100.72656 248.192266,100.029301 248.192266,99.1328125 L248.192266,98.2626953 L246.733281,98.3242188 C245.573119,98.3652346 244.736702,98.5454086 244.224004,98.8647461 C243.711306,99.1840836 243.454961,99.6806607 243.454961,100.354492 C243.454961,100.881839 243.614627,101.283202 243.933965,101.558594 C244.253302,101.833986 244.700075,101.97168 245.274297,101.97168 L245.274297,101.97168 Z M256.641719,103.175781 C255.247181,103.175781 254.167602,102.746586 253.402949,101.888184 C252.638297,101.029781 252.255977,99.8154375 252.255977,98.2451172 C252.255977,96.633781 252.644156,95.3886763 253.420527,94.5097656 C254.196898,93.630855 255.302844,93.1914062 256.738399,93.1914062 C257.201291,93.1914062 257.664177,93.2412104 258.12707,93.3408203 C258.589963,93.4404302 258.953241,93.5576165 259.216914,93.6923828 L258.768672,94.9316406 C258.446405,94.8027337 258.094846,94.6958012 257.713984,94.6108398 C257.333123,94.5258785 256.996212,94.4833984 256.703242,94.4833984 C254.746201,94.4833984 253.767695,95.7314328 253.767695,98.2275391 C253.767695,99.4111387 254.006463,100.319333 254.484004,100.952148 C254.961545,101.584964 255.669058,101.901367 256.606563,101.901367 C257.409301,101.901367 258.232535,101.728517 259.076289,101.382812 L259.076289,102.674805 C258.431755,103.008791 257.620239,103.175781 256.641719,103.175781 L256.641719,103.175781 Z M262.937852,98.0693359 C263.189806,97.7119123 263.573591,97.243167 264.089219,96.6630859 L267.200547,93.3671875 L268.931992,93.3671875 L265.029649,97.4716797 L269.204453,103 L267.437852,103 L264.036484,98.4472656 L262.937852,99.3964844 L262.937852,103 L261.496445,103 L261.496445,89.3242188 L262.937852,89.3242188 L262.937852,96.5751953 C262.937852,96.8974625 262.914414,97.3955044 262.867539,98.0693359 L262.937852,98.0693359 Z M277.003516,103 L276.713477,101.628906 L276.643164,101.628906 C276.162693,102.232425 275.683694,102.641112 275.206152,102.85498 C274.728611,103.068849 274.132426,103.175781 273.417578,103.175781 C272.462495,103.175781 271.713968,102.92969 271.171973,102.4375 C270.629978,101.94531 270.358984,101.245122 270.358984,100.336914 C270.358984,98.3915918 271.914633,97.3720708 275.025977,97.2783203 L276.660742,97.2255859 L276.660742,96.6279297 C276.660742,95.8720665 276.498146,95.3139666 276.172949,94.9536133 C275.847752,94.5932599 275.327738,94.4130859 274.612891,94.4130859 C273.810152,94.4130859 272.901958,94.6591772 271.888281,95.1513672 L271.440039,94.0351562 C271.914651,93.7773425 272.434665,93.575196 273.000098,93.4287109 C273.56553,93.2822258 274.132419,93.2089844 274.700781,93.2089844 C275.849225,93.2089844 276.70029,93.4638646 277.254004,93.9736328 C277.807718,94.483401 278.08457,95.3007756 278.08457,96.4257812 L278.08457,103 L277.003516,103 Z M273.707617,101.97168 C274.615825,101.97168 275.329197,101.722659 275.847754,101.224609 C276.366311,100.72656 276.625586,100.029301 276.625586,99.1328125 L276.625586,98.2626953 L275.166602,98.3242188 C274.00644,98.3652346 273.170022,98.5454086 272.657324,98.8647461 C272.144626,99.1840836 271.888281,99.6806607 271.888281,100.354492 C271.888281,100.881839 272.047948,101.283202 272.367285,101.558594 C272.686623,101.833986 273.133396,101.97168 273.707617,101.97168 L273.707617,101.97168 Z M284.336758,101.97168 C284.594572,101.97168 284.843593,101.952637 285.083828,101.914551 C285.324064,101.876465 285.514492,101.836914 285.655117,101.795898 L285.655117,102.912109 C285.496913,102.988282 285.264006,103.051269 284.956387,103.101074 C284.648768,103.150879 284.371915,103.175781 284.12582,103.175781 C282.26253,103.175781 281.330899,102.194346 281.330899,100.231445 L281.330899,94.5009766 L279.951016,94.5009766 L279.951016,93.7978516 L281.330899,93.1914062 L281.946133,91.1347656 L282.789883,91.1347656 L282.789883,93.3671875 L285.584805,93.3671875 L285.584805,94.5009766 L282.789883,94.5009766 L282.789883,100.169922 C282.789883,100.750003 282.927577,101.195311 283.202969,101.505859 C283.478361,101.816408 283.856287,101.97168 284.336758,101.97168 L284.336758,101.97168 Z M294.306719,103 L294.306719,96.7685547 C294.306719,95.9833945 294.12801,95.3974629 293.770586,95.0107422 C293.413162,94.6240215 292.853598,94.4306641 292.091875,94.4306641 C291.078198,94.4306641 290.338459,94.7060519 289.872637,95.2568359 C289.406814,95.8076199 289.173906,96.7099547 289.173906,97.9638672 L289.173906,103 L287.714922,103 L287.714922,89.3242188 L289.173906,89.3242188 L289.173906,93.4638672 C289.173906,93.9619166 289.150469,94.3749984 289.103594,94.703125 L289.191484,94.703125 C289.478595,94.2402321 289.887283,93.8754896 290.417559,93.6088867 C290.947835,93.3422838 291.552809,93.2089844 292.2325,93.2089844 C293.41024,93.2089844 294.293532,93.4887667 294.882402,94.0483398 C295.471273,94.607913 295.765703,95.4970642 295.765703,96.7158203 L295.765703,103 L294.306719,103 Z M307.212227,98.1748047 C307.212227,99.745125 306.816723,100.971187 306.025703,101.853027 C305.234684,102.734868 304.141921,103.175781 302.747383,103.175781 C301.88605,103.175781 301.12141,102.973635 300.453438,102.569336 C299.785466,102.165037 299.269846,101.584965 298.906563,100.829102 C298.54328,100.073238 298.361641,99.1884816 298.361641,98.1748047 C298.361641,96.6044843 298.754215,95.381352 299.539375,94.5053711 C300.324535,93.6293902 301.414368,93.1914062 302.808906,93.1914062 C304.156569,93.1914062 305.227359,93.639644 306.021309,94.5361328 C306.815258,95.4326217 307.212227,96.6455002 307.212227,98.1748047 L307.212227,98.1748047 Z M299.873359,98.1748047 C299.873359,99.4052796 300.119451,100.34277 300.611641,100.987305 C301.103831,101.631839 301.827456,101.954102 302.782539,101.954102 C303.737622,101.954102 304.462712,101.633304 304.957832,100.991699 C305.452952,100.350094 305.700508,99.411139 305.700508,98.1748047 C305.700508,96.9501892 305.452952,96.0200227 304.957832,95.3842773 C304.462712,94.748532 303.731763,94.4306641 302.764961,94.4306641 C301.809878,94.4306641 301.089182,94.7441375 300.602852,95.3710938 C300.116521,95.99805 299.873359,96.932611 299.873359,98.1748047 L299.873359,98.1748047 Z M316.496641,103 L316.496641,96.7685547 C316.496641,95.9833945 316.317932,95.3974629 315.960508,95.0107422 C315.603084,94.6240215 315.04352,94.4306641 314.281797,94.4306641 C313.273979,94.4306641 312.535706,94.7031223 312.066953,95.2480469 C311.598201,95.7929715 311.363828,96.6923765 311.363828,97.9462891 L311.363828,103 L309.904844,103 L309.904844,93.3671875 L311.091367,93.3671875 L311.328672,94.6855469 L311.398984,94.6855469 C311.697814,94.2109351 312.116755,93.843263 312.65582,93.5825195 C313.194886,93.321776 313.795466,93.1914062 314.457578,93.1914062 C315.61774,93.1914062 316.490778,93.4711886 317.076719,94.0307617 C317.662659,94.5903348 317.955625,95.4853454 317.955625,96.7158203 L317.955625,103 L316.496641,103 Z M330.380899,93.2089844 C331.64653,93.2089844 332.62943,93.641109 333.329629,94.5053711 C334.029828,95.3696332 334.379922,96.5927655 334.379922,98.1748047 C334.379922,99.7568438 334.026898,100.985835 333.32084,101.861816 C332.614782,102.737797 331.634811,103.175781 330.380899,103.175781 C329.753942,103.175781 329.181194,103.06006 328.662637,102.828613 C328.14408,102.597167 327.709025,102.241213 327.357461,101.760742 L327.251992,101.760742 L326.944375,103 L325.898477,103 L325.898477,89.3242188 L327.357461,89.3242188 L327.357461,92.6464844 C327.357461,93.3906287 327.334024,94.0585908 327.287149,94.6503906 L327.357461,94.6503906 C328.037152,93.6894483 329.044954,93.2089844 330.380899,93.2089844 L330.380899,93.2089844 Z M330.169961,94.4306641 C329.173862,94.4306641 328.456096,94.7163057 328.016641,95.2875977 C327.577185,95.8588896 327.357461,96.8212823 327.357461,98.1748047 C327.357461,99.5283271 327.583045,100.496579 328.034219,101.07959 C328.485393,101.662601 329.209019,101.954102 330.205117,101.954102 C331.101606,101.954102 331.769568,101.627445 332.209024,100.974121 C332.648479,100.320798 332.868203,99.3818421 332.868203,98.1572266 C332.868203,96.903314 332.648479,95.9687531 332.209024,95.3535156 C331.769568,94.7382782 331.089888,94.4306641 330.169961,94.4306641 L330.169961,94.4306641 Z M335.174102,93.3671875 L336.738555,93.3671875 L338.84793,98.8603516 C339.310823,100.114264 339.597929,101.019528 339.709258,101.576172 L339.77957,101.576172 C339.855743,101.277342 340.015409,100.766117 340.258574,100.04248 C340.50174,99.318844 341.297142,97.0937686 342.644805,93.3671875 L344.209258,93.3671875 L340.069609,104.335938 C339.659451,105.419927 339.180452,106.188963 338.632598,106.643066 C338.084743,107.09717 337.412387,107.324219 336.615508,107.324219 C336.170193,107.324219 335.730744,107.274415 335.297149,107.174805 L335.297149,106.005859 C335.619416,106.076172 335.979764,106.111328 336.378203,106.111328 C337.380161,106.111328 338.094998,105.548834 338.522734,104.423828 L339.058867,103.052734 L335.174102,93.3671875 Z M360.695078,103 L359.200938,103 L359.200938,96.953125 L352.43336,96.953125 L352.43336,103 L350.939219,103 L350.939219,90.1503906 L352.43336,90.1503906 L352.43336,95.6171875 L359.200938,95.6171875 L359.200938,90.1503906 L360.695078,90.1503906 L360.695078,103 Z M370.058594,103 L369.768555,101.628906 L369.698242,101.628906 C369.217771,102.232425 368.738772,102.641112 368.261231,102.85498 C367.783689,103.068849 367.187504,103.175781 366.472656,103.175781 C365.517573,103.175781 364.769046,102.92969 364.227051,102.4375 C363.685056,101.94531 363.414063,101.245122 363.414063,100.336914 C363.414063,98.3915918 364.969711,97.3720708 368.081055,97.2783203 L369.71582,97.2255859 L369.71582,96.6279297 C369.71582,95.8720665 369.553224,95.3139666 369.228027,94.9536133 C368.902831,94.5932599 368.382816,94.4130859 367.667969,94.4130859 C366.86523,94.4130859 365.957036,94.6591772 364.94336,95.1513672 L364.495117,94.0351562 C364.969729,93.7773425 365.489743,93.575196 366.055176,93.4287109 C366.620608,93.2822258 367.187497,93.2089844 367.75586,93.2089844 C368.904303,93.2089844 369.755368,93.4638646 370.309082,93.9736328 C370.862796,94.483401 371.139649,95.3007756 371.139649,96.4257812 L371.139649,103 L370.058594,103 Z M366.762695,101.97168 C367.670903,101.97168 368.384275,101.722659 368.902832,101.224609 C369.421389,100.72656 369.680664,100.029301 369.680664,99.1328125 L369.680664,98.2626953 L368.22168,98.3242188 C367.061518,98.3652346 366.2251,98.5454086 365.712402,98.8647461 C365.199705,99.1840836 364.94336,99.6806607 364.94336,100.354492 C364.94336,100.881839 365.103026,101.283202 365.422363,101.558594 C365.741701,101.833986 366.188474,101.97168 366.762695,101.97168 L366.762695,101.97168 Z M378.130117,103.175781 C376.735579,103.175781 375.656,102.746586 374.891348,101.888184 C374.126696,101.029781 373.744375,99.8154375 373.744375,98.2451172 C373.744375,96.633781 374.132555,95.3886763 374.908926,94.5097656 C375.685297,93.630855 376.791243,93.1914062 378.226797,93.1914062 C378.68969,93.1914062 379.152576,93.2412104 379.615469,93.3408203 C380.078362,93.4404302 380.441639,93.5576165 380.705313,93.6923828 L380.25707,94.9316406 C379.934803,94.8027337 379.583244,94.6958012 379.202383,94.6108398 C378.821522,94.5258785 378.484611,94.4833984 378.191641,94.4833984 C376.2346,94.4833984 375.256094,95.7314328 375.256094,98.2275391 C375.256094,99.4111387 375.494861,100.319333 375.972402,100.952148 C376.449944,101.584964 377.157456,101.901367 378.094961,101.901367 C378.897699,101.901367 379.720933,101.728517 380.564688,101.382812 L380.564688,102.674805 C379.920153,103.008791 379.108638,103.175781 378.130117,103.175781 L378.130117,103.175781 Z M384.42625,98.0693359 C384.678205,97.7119123 385.06199,97.243167 385.577617,96.6630859 L388.688945,93.3671875 L390.420391,93.3671875 L386.518047,97.4716797 L390.692852,103 L388.92625,103 L385.524883,98.4472656 L384.42625,99.3964844 L384.42625,103 L382.984844,103 L382.984844,89.3242188 L384.42625,89.3242188 L384.42625,96.5751953 C384.42625,96.8974625 384.402813,97.3955044 384.355938,98.0693359 L384.42625,98.0693359 Z M398.781953,100.37207 C398.781953,101.268559 398.447972,101.959959 397.78,102.446289 C397.112028,102.93262 396.174537,103.175781 394.9675,103.175781 C393.69015,103.175781 392.694066,102.973635 391.979219,102.569336 L391.979219,101.21582 C392.442112,101.450196 392.938689,101.634765 393.468965,101.769531 C393.999241,101.904298 394.510466,101.97168 395.002656,101.97168 C395.764379,101.97168 396.350311,101.850099 396.760469,101.606934 C397.170627,101.363768 397.375703,100.993167 397.375703,100.495117 C397.375703,100.120115 397.213107,99.7993177 396.88791,99.5327148 C396.562713,99.2661119 395.928442,98.9511737 394.985078,98.5878906 C394.088589,98.2539046 393.451389,97.9624036 393.073457,97.7133789 C392.695526,97.4643542 392.414278,97.1816422 392.229707,96.8652344 C392.045136,96.5488265 391.952852,96.1709006 391.952852,95.7314453 C391.952852,94.9462851 392.272184,94.3266624 392.91086,93.8725586 C393.549535,93.4184548 394.425502,93.1914062 395.538789,93.1914062 C396.575904,93.1914062 397.589566,93.4023416 398.579805,93.8242188 L398.06125,95.0107422 C397.094448,94.6123027 396.218481,94.4130859 395.43332,94.4130859 C394.741911,94.4130859 394.220432,94.5214833 393.868867,94.7382812 C393.517303,94.9550792 393.341524,95.2539043 393.341524,95.6347656 C393.341524,95.8925794 393.407441,96.1123038 393.539277,96.2939453 C393.671114,96.4755868 393.883514,96.6484367 394.176485,96.8125 C394.469455,96.9765633 395.031949,97.2138656 395.863985,97.5244141 C397.006568,97.9404318 397.778533,98.3593729 398.179902,98.78125 C398.581272,99.2031271 398.781953,99.7333952 398.781953,100.37207 L398.781953,100.37207 Z M413.56832,103 L413.56832,96.7333984 C413.56832,95.9658165 413.40426,95.3901386 413.076133,95.0063477 C412.748006,94.6225567 412.238246,94.4306641 411.546836,94.4306641 C410.638628,94.4306641 409.967737,94.6914036 409.534141,95.2128906 C409.100545,95.7343776 408.88375,96.537104 408.88375,97.6210938 L408.88375,103 L407.424766,103 L407.424766,96.7333984 C407.424766,95.9658165 407.260705,95.3901386 406.932578,95.0063477 C406.604452,94.6225567 406.091761,94.4306641 405.394492,94.4306641 C404.480425,94.4306641 403.810998,94.7045871 403.386192,95.2524414 C402.961385,95.8002957 402.748985,96.6982359 402.748985,97.9462891 L402.748985,103 L401.29,103 L401.29,93.3671875 L402.476524,93.3671875 L402.713828,94.6855469 L402.784141,94.6855469 C403.059533,94.2167945 403.447712,93.8505873 403.948692,93.5869141 C404.449671,93.3232409 405.0107,93.1914062 405.631797,93.1914062 C407.137664,93.1914062 408.122029,93.7363227 408.584922,94.8261719 L408.655235,94.8261719 C408.942345,94.3222631 409.358357,93.9238296 409.903281,93.6308594 C410.448206,93.3378892 411.069294,93.1914062 411.766563,93.1914062 C412.856412,93.1914062 413.672322,93.4711886 414.214317,94.0307617 C414.756311,94.5903348 415.027305,95.4853454 415.027305,96.7158203 L415.027305,103 L413.56832,103 Z M419.627149,103 L418.168164,103 L418.168164,93.3671875 L419.627149,93.3671875 L419.627149,103 Z M418.045117,90.7568359 C418.045117,90.4228499 418.127148,90.1782234 418.291211,90.0229492 C418.455274,89.867675 418.66035,89.7900391 418.906445,89.7900391 C419.140822,89.7900391 419.342968,89.8691398 419.512891,90.0273438 C419.682814,90.1855477 419.767774,90.4287093 419.767774,90.7568359 C419.767774,91.0849626 419.682814,91.329589 419.512891,91.4907227 C419.342968,91.6518563 419.140822,91.7324219 418.906445,91.7324219 C418.66035,91.7324219 418.455274,91.6518563 418.291211,91.4907227 C418.127148,91.329589 418.045117,91.0849626 418.045117,90.7568359 L418.045117,90.7568359 Z M425.967227,101.97168 C426.225041,101.97168 426.474061,101.952637 426.714297,101.914551 C426.954533,101.876465 427.14496,101.836914 427.285586,101.795898 L427.285586,102.912109 C427.127382,102.988282 426.894474,103.051269 426.586856,103.101074 C426.279237,103.150879 426.002384,103.175781 425.756289,103.175781 C423.892999,103.175781 422.961367,102.194346 422.961367,100.231445 L422.961367,94.5009766 L421.581485,94.5009766 L421.581485,93.7978516 L422.961367,93.1914062 L423.576602,91.1347656 L424.420352,91.1347656 L424.420352,93.3671875 L427.215274,93.3671875 L427.215274,94.5009766 L424.420352,94.5009766 L424.420352,100.169922 C424.420352,100.750003 424.558046,101.195311 424.833438,101.505859 C425.10883,101.816408 425.486756,101.97168 425.967227,101.97168 L425.967227,101.97168 Z M435.937188,103 L435.937188,96.7685547 C435.937188,95.9833945 435.758479,95.3974629 435.401055,95.0107422 C435.043631,94.6240215 434.484066,94.4306641 433.722344,94.4306641 C432.708667,94.4306641 431.968928,94.7060519 431.503106,95.2568359 C431.037283,95.8076199 430.804375,96.7099547 430.804375,97.9638672 L430.804375,103 L429.345391,103 L429.345391,89.3242188 L430.804375,89.3242188 L430.804375,93.4638672 C430.804375,93.9619166 430.780938,94.3749984 430.734063,94.703125 L430.821953,94.703125 C431.109064,94.2402321 431.517751,93.8754896 432.048028,93.6088867 C432.578304,93.3422838 433.183278,93.2089844 433.862969,93.2089844 C435.040709,93.2089844 435.924001,93.4887667 436.512871,94.0483398 C437.101741,94.607913 437.396172,95.4970642 437.396172,96.7158203 L437.396172,103 L435.937188,103 Z M446.74211,100.37207 C446.74211,101.268559 446.408129,101.959959 445.740156,102.446289 C445.072184,102.93262 444.134694,103.175781 442.927656,103.175781 C441.650306,103.175781 440.654223,102.973635 439.939375,102.569336 L439.939375,101.21582 C440.402268,101.450196 440.898845,101.634765 441.429121,101.769531 C441.959397,101.904298 442.470623,101.97168 442.962813,101.97168 C443.724535,101.97168 444.310467,101.850099 444.720625,101.606934 C445.130783,101.363768 445.33586,100.993167 445.33586,100.495117 C445.33586,100.120115 445.173264,99.7993177 444.848067,99.5327148 C444.52287,99.2661119 443.888599,98.9511737 442.945235,98.5878906 C442.048746,98.2539046 441.411545,97.9624036 441.033613,97.7133789 C440.655682,97.4643542 440.374435,97.1816422 440.189863,96.8652344 C440.005292,96.5488265 439.913008,96.1709006 439.913008,95.7314453 C439.913008,94.9462851 440.232341,94.3266624 440.871016,93.8725586 C441.509691,93.4184548 442.385659,93.1914062 443.498945,93.1914062 C444.53606,93.1914062 445.549722,93.4023416 446.539961,93.8242188 L446.021406,95.0107422 C445.054605,94.6123027 444.178637,94.4130859 443.393477,94.4130859 C442.702067,94.4130859 442.180588,94.5214833 441.829024,94.7382812 C441.477459,94.9550792 441.30168,95.2539043 441.30168,95.6347656 C441.30168,95.8925794 441.367597,96.1123038 441.499434,96.2939453 C441.63127,96.4755868 441.843671,96.6484367 442.136641,96.8125 C442.429611,96.9765633 442.992105,97.2138656 443.824141,97.5244141 C444.966725,97.9404318 445.73869,98.3593729 446.140059,98.78125 C446.541428,99.2031271 446.74211,99.7333952 446.74211,100.37207 L446.74211,100.37207 Z" id="A-creative-hackathon" fill="#FFFFFF"></path>
        </g>
    </g>
</svg>